{
	"asset":{
		"generator":"Khronos glTF Blender I/O v3.6.27",
		"version":"2.0"
	},
	"scene":0,
	"scenes":[
		{
			"name":"Scene",
			"nodes":[
				0
			]
		}
	],
	"nodes":[
		{
			"mesh":0,
			"name":"blasterA",
			"rotation":[
				0,
				0.7071068286895752,
				0,
				0.7071067094802856
			],
			"scale":[
				3.0569651126861572,
				3.056964635848999,
				3.0569651126861572
			]
		}
	],
	"materials":[
		{
			"name":"metal",
			"pbrMetallicRoughness":{
				"baseColorFactor":[
					0.7960784435272217,
					0.8156862854957581,
					0.8784313797950745,
					1
				],
				"roughnessFactor":0.1985294222831726
			}
		},
		{
			"name":"dark",
			"pbrMetallicRoughness":{
				"baseColorFactor":[
					0.1568627506494522,
					0.19607843458652496,
					0.239215686917305,
					1
				],
				"metallicFactor":0,
				"roughnessFactor":0.7720588445663452
			}
		},
		{
			"name":"darkMetal",
			"pbrMetallicRoughness":{
				"baseColorFactor":[
					0.5921568870544434,
					0.6352941393852234,
					0.7686274647712708,
					1
				],
				"roughnessFactor":0.11764705926179886
			}
		},
		{
			"name":"purple",
			"pbrMetallicRoughness":{
				"baseColorFactor":[
					0.09373167902231216,
					0.06921383738517761,
					0.14240044355392456,
					1
				],
				"metallicFactor":0
			}
		}
	],
	"meshes":[
		{
			"name":"Mesh blasterA",
			"primitives":[
				{
					"attributes":{
						"POSITION":0,
						"NORMAL":1,
						"TEXCOORD_0":2
					},
					"indices":3,
					"material":0
				},
				{
					"attributes":{
						"POSITION":4,
						"NORMAL":5,
						"TEXCOORD_0":6
					},
					"indices":7,
					"material":1
				},
				{
					"attributes":{
						"POSITION":8,
						"NORMAL":9,
						"TEXCOORD_0":10
					},
					"indices":11,
					"material":2
				},
				{
					"attributes":{
						"POSITION":12,
						"NORMAL":13,
						"TEXCOORD_0":14
					},
					"indices":15,
					"material":3
				}
			]
		}
	],
	"accessors":[
		{
			"bufferView":0,
			"componentType":5126,
			"count":314,
			"max":[
				0.07070692628622055,
				0.19290584325790405,
				0.4355623722076416
			],
			"min":[
				-0.06909767538309097,
				-0.1031273901462555,
				-0.3844376802444458
			],
			"type":"VEC3"
		},
		{
			"bufferView":1,
			"componentType":5126,
			"count":314,
			"type":"VEC3"
		},
		{
			"bufferView":2,
			"componentType":5126,
			"count":314,
			"type":"VEC2"
		},
		{
			"bufferView":3,
			"componentType":5123,
			"count":420,
			"type":"SCALAR"
		},
		{
			"bufferView":4,
			"componentType":5126,
			"count":138,
			"max":[
				0.05105619877576828,
				0.1267724335193634,
				0.4355623722076416
			],
			"min":[
				-0.04909767955541611,
				-0.20312735438346863,
				-0.2194375991821289
			],
			"type":"VEC3"
		},
		{
			"bufferView":5,
			"componentType":5126,
			"count":138,
			"type":"VEC3"
		},
		{
			"bufferView":6,
			"componentType":5126,
			"count":138,
			"type":"VEC2"
		},
		{
			"bufferView":7,
			"componentType":5123,
			"count":192,
			"type":"SCALAR"
		},
		{
			"bufferView":8,
			"componentType":5126,
			"count":212,
			"max":[
				0.05091698467731476,
				0.19278377294540405,
				0.4355624318122864
			],
			"min":[
				-0.04909767955541611,
				-0.2231273353099823,
				-0.1544376015663147
			],
			"type":"VEC3"
		},
		{
			"bufferView":9,
			"componentType":5126,
			"count":212,
			"type":"VEC3"
		},
		{
			"bufferView":10,
			"componentType":5126,
			"count":212,
			"type":"VEC2"
		},
		{
			"bufferView":11,
			"componentType":5123,
			"count":294,
			"type":"SCALAR"
		},
		{
			"bufferView":12,
			"componentType":5126,
			"count":172,
			"max":[
				0.07104646414518356,
				0.14693370461463928,
				0.24056239426136017
			],
			"min":[
				-0.06909767538309097,
				-0.1031273901462555,
				-0.3844376802444458
			],
			"type":"VEC3"
		},
		{
			"bufferView":13,
			"componentType":5126,
			"count":172,
			"type":"VEC3"
		},
		{
			"bufferView":14,
			"componentType":5126,
			"count":172,
			"type":"VEC2"
		},
		{
			"bufferView":15,
			"componentType":5123,
			"count":240,
			"type":"SCALAR"
		}
	],
	"bufferViews":[
		{
			"buffer":0,
			"byteLength":3768,
			"byteOffset":0,
			"target":34962
		},
		{
			"buffer":0,
			"byteLength":3768,
			"byteOffset":3768,
			"target":34962
		},
		{
			"buffer":0,
			"byteLength":2512,
			"byteOffset":7536,
			"target":34962
		},
		{
			"buffer":0,
			"byteLength":840,
			"byteOffset":10048,
			"target":34963
		},
		{
			"buffer":0,
			"byteLength":1656,
			"byteOffset":10888,
			"target":34962
		},
		{
			"buffer":0,
			"byteLength":1656,
			"byteOffset":12544,
			"target":34962
		},
		{
			"buffer":0,
			"byteLength":1104,
			"byteOffset":14200,
			"target":34962
		},
		{
			"buffer":0,
			"byteLength":384,
			"byteOffset":15304,
			"target":34963
		},
		{
			"buffer":0,
			"byteLength":2544,
			"byteOffset":15688,
			"target":34962
		},
		{
			"buffer":0,
			"byteLength":2544,
			"byteOffset":18232,
			"target":34962
		},
		{
			"buffer":0,
			"byteLength":1696,
			"byteOffset":20776,
			"target":34962
		},
		{
			"buffer":0,
			"byteLength":588,
			"byteOffset":22472,
			"target":34963
		},
		{
			"buffer":0,
			"byteLength":2064,
			"byteOffset":23060,
			"target":34962
		},
		{
			"buffer":0,
			"byteLength":2064,
			"byteOffset":25124,
			"target":34962
		},
		{
			"buffer":0,
			"byteLength":1376,
			"byteOffset":27188,
			"target":34962
		},
		{
			"buffer":0,
			"byteLength":480,
			"byteOffset":28564,
			"target":34963
		}
	],
	"buffers":[
		{
			"byteLength":29044,
			"uri":"data:application/octet-stream;base64,"
		}
	]
}
